# xmcd CD database file
#
# Track frame offsets:
#	150
#	1798
#	17979
#	38519
#	56746
#	77149
#	94457
#	95158
#	115394
#	136216
#	159083
#	177608
#	197737
#	218232
#	239780
#	257017
#
# Disc length: 3439 seconds
#
# Revision: 1
# Processed by: cddbd v1.5.2PL0 Copyright (c) Steve Scherf et al.
# Submitted via: CDex 1.70beta2
#
DISCID=df0d6d10
DTITLE=Tasha Taylor - Taylormade
DYEAR=2011
DGENRE=Blues
TTITLE0=Intro
TTITLE1=Who's Making Love
TTITLE2=Somebody
TTITLE3=I Got Love
TTITLE4=Queen
TTITLE5=What Difference Does It Make?
TTITLE6=Middle
TTITLE7=Wonder Woman
TTITLE8=Badman
TTITLE9=Refund
TTITLE10=Merry Christmas baby
TTITLE11=All This Time
TTITLE12=Best Friend
TTITLE13=Sexylady
TTITLE14=Daddy's Girl
TTITLE15=Outro
EXTD=YEAR: 2011
EXTT0=
EXTT1=
EXTT2=
EXTT3=
EXTT4=
EXTT5=
EXTT6=
EXTT7=
EXTT8=
EXTT9=
EXTT10=
EXTT11=
EXTT12=
EXTT13=
EXTT14=
EXTT15=
PLAYORDER=
